<svg width="221" height="241" viewBox="0 0 221 241" fill="none" xmlns="http://www.w3.org/2000/svg">
<g clip-path="url(#clip0_24_292)">
<mask id="mask0_24_292" style="mask-type:alpha" maskUnits="userSpaceOnUse" x="0" y="21" width="221" height="220">
<path d="M110.805 241C171.551 241 220.796 191.831 220.796 131.177C220.796 70.5237 171.551 21.3544 110.805 21.3544C50.059 21.3544 0.814453 70.5237 0.814453 131.177C0.814453 191.831 50.059 241 110.805 241Z" fill="white"/>
</mask>
<g mask="url(#mask0_24_292)">
<path d="M110.805 241C171.551 241 220.796 191.831 220.796 131.177C220.796 70.5237 171.551 21.3544 110.805 21.3544C50.059 21.3544 0.814453 70.5237 0.814453 131.177C0.814453 191.831 50.059 241 110.805 241Z" fill="#7510F7"/>
<path d="M221.25 21.3544H0.814453V241H221.25V21.3544Z" fill="#7510F7"/>
</g>
<mask id="mask1_24_292" style="mask-type:alpha" maskUnits="userSpaceOnUse" x="-11" y="-16" width="243" height="257">
<path d="M-10.1846 131.177V-15.2532H231.795V131.177H220.796C220.796 191.831 171.552 241 110.805 241C50.0591 241 0.814508 191.831 0.814508 131.177H-10.1846Z" fill="white"/>
</mask>
<g mask="url(#mask1_24_292)">
<mask id="mask2_24_292" style="mask-type:alpha" maskUnits="userSpaceOnUse" x="19" y="17" width="184" height="224">
<path d="M110.805 17.6936C139.154 17.6936 162.135 40.6393 162.135 68.9442L162.135 74.5874C167.337 75.4592 171.3 79.9763 171.3 85.4177V98.2303C171.3 103.769 167.193 108.351 161.854 109.104C159.96 127.23 148.604 142.545 132.805 150.04L132.804 166.87H136.47C172.918 166.87 202.464 196.371 202.464 232.763V241H19.1465V232.763C19.1465 196.371 48.6932 166.87 85.141 166.87H88.8073L88.8074 150.04C73.0078 142.546 61.6509 127.23 59.7561 109.104C54.4176 108.351 50.3105 103.769 50.3105 98.2303V85.4177C50.3105 79.9759 54.2744 75.4586 59.4765 74.5872L59.4764 68.9442C59.4764 40.6393 82.4572 17.6936 110.805 17.6936Z" fill="white"/>
</mask>
<g mask="url(#mask2_24_292)">
<path d="M110.805 17.6936C139.154 17.6936 162.135 40.6393 162.135 68.9442L162.135 74.5874C167.337 75.4592 171.3 79.9763 171.3 85.4177V98.2303C171.3 103.769 167.193 108.351 161.854 109.104C159.96 127.23 148.604 142.545 132.805 150.04L132.804 166.87H136.47C172.918 166.87 202.464 196.371 202.464 232.763V241H19.1465V232.763C19.1465 196.371 48.6932 166.87 85.141 166.87H88.8073L88.8074 150.04C73.0078 142.546 61.6509 127.23 59.7561 109.104C54.4176 108.351 50.3105 103.769 50.3105 98.2303V85.4177C50.3105 79.9759 54.2744 75.4586 59.4765 74.5872L59.4764 68.9442C59.4764 40.6393 82.4572 17.6936 110.805 17.6936Z" fill="#D0C6AC"/>
<path d="M232.593 17.6936H-10.1846V241.768H232.593V17.6936Z" fill="#FFDBB4"/>
<path fill-rule="evenodd" clip-rule="evenodd" d="M59.4766 103.721C59.4766 132.026 82.4574 154.972 110.806 154.972C139.154 154.972 162.135 132.026 162.135 103.721V111.043C162.135 139.348 139.154 162.294 110.806 162.294C82.4574 162.294 59.4766 139.348 59.4766 111.043V103.721Z" fill="black" fill-opacity="0.1"/>
</g>
<mask id="mask3_24_292" style="mask-type:alpha" maskUnits="userSpaceOnUse" x="19" y="152" width="184" height="89">
<path d="M132.805 152.292C149.395 154.145 162.135 159.24 162.135 172.431L162.129 172.035C185.831 182.031 202.464 205.457 202.464 232.763V241H19.1465V232.763C19.1465 205.457 35.7803 182.031 59.4824 172.035C59.7337 159.138 72.3835 154.126 88.807 152.292L88.8073 169.615C88.8073 181.746 98.6562 191.58 110.805 191.58C122.955 191.58 132.804 181.746 132.804 169.615L132.805 152.292Z" fill="white"/>
</mask>
<g mask="url(#mask3_24_292)">
<path d="M132.805 152.292C149.395 154.145 162.135 159.24 162.135 172.431L162.129 172.035C185.831 182.031 202.464 205.457 202.464 232.763V241H19.1465V232.763C19.1465 205.457 35.7803 182.031 59.4824 172.035C59.7337 159.138 72.3835 154.126 88.807 152.292L88.8073 169.615C88.8073 181.746 98.6562 191.58 110.805 191.58C122.955 191.58 132.804 181.746 132.804 169.615L132.805 152.292Z" fill="#B7C1DB"/>
<path d="M232.702 140.329H-10.1846V241H232.702V140.329Z" fill="#293347"/>
<path fill-rule="evenodd" clip-rule="evenodd" d="M83.3076 196.832L83.3078 241H76.8917L76.8906 193.547C78.9108 194.746 81.0587 195.845 83.3076 196.832ZM144.721 193.547L144.719 230.475C144.719 232.244 143.283 233.678 141.511 233.678C139.739 233.678 138.303 232.244 138.303 230.475L138.304 196.832C140.553 195.845 142.701 194.746 144.721 193.547Z" fill="#F4F4F4"/>
<path fill-rule="evenodd" clip-rule="evenodd" d="M148.42 151.974C162.217 154.579 171.759 159.77 171.759 169.897C171.759 187.937 141.477 202.562 110.806 202.562C80.1345 202.562 49.8525 187.937 49.8525 169.897C49.8525 159.77 59.3948 154.579 73.1917 151.974C64.8634 155.039 59.4767 160.193 59.4767 168.77C59.4767 187.433 84.9774 202.562 110.806 202.562C136.634 202.562 162.135 187.433 162.135 168.77C162.135 160.372 156.971 155.256 148.937 152.168L148.42 151.974Z" fill="black" fill-opacity="0.16"/>
</g>
<mask id="mask4_24_292" style="mask-type:alpha" maskUnits="userSpaceOnUse" x="93" y="119" width="36" height="18">
<path d="M93.4983 121.227C94.4679 129.914 101.847 136.668 110.806 136.668C119.792 136.668 127.189 129.872 128.122 121.147C128.197 120.444 127.411 119.28 126.427 119.28C112.775 119.28 102.316 119.28 95.3031 119.28C94.313 119.28 93.4013 120.358 93.4983 121.227Z" fill="white"/>
</mask>
<g mask="url(#mask4_24_292)">
<path d="M93.4983 121.227C94.4679 129.914 101.847 136.668 110.806 136.668C119.792 136.668 127.189 129.872 128.122 121.147C128.197 120.444 127.411 119.28 126.427 119.28C112.775 119.28 102.316 119.28 95.3031 119.28C94.313 119.28 93.4013 120.358 93.4983 121.227Z" fill="black" fill-opacity="0.7"/>
<path fill-rule="evenodd" clip-rule="evenodd" d="M101.64 109.213H120.888C123.419 109.213 125.471 111.261 125.471 113.788V119.28C125.471 121.807 123.419 123.856 120.888 123.856H101.64C99.1085 123.856 97.0566 121.807 97.0566 119.28V113.788C97.0566 111.261 99.1085 109.213 101.64 109.213Z" fill="white"/>
<path d="M106.222 149.481C111.791 149.481 116.305 144.974 116.305 139.414C116.305 133.854 111.791 129.347 106.222 129.347C100.654 129.347 96.1396 133.854 96.1396 139.414C96.1396 144.974 100.654 149.481 106.222 149.481Z" fill="#FF4F6D"/>
<path d="M115.388 149.481C120.957 149.481 125.471 144.974 125.471 139.414C125.471 133.854 120.957 129.347 115.388 129.347C109.82 129.347 105.306 133.854 105.306 139.414C105.306 144.974 109.82 149.481 115.388 149.481Z" fill="#FF4F6D"/>
</g>
<path fill-rule="evenodd" clip-rule="evenodd" d="M99.8066 103.721C99.8066 107.765 104.731 111.043 110.806 111.043C116.88 111.043 121.805 107.765 121.805 103.721" fill="black" fill-opacity="0.16"/>
<path fill-rule="evenodd" clip-rule="evenodd" d="M74.2894 87.6573C75.9819 84.1807 79.7928 81.7568 84.2228 81.7568C88.6372 81.7568 92.4369 84.1636 94.1383 87.6206C94.6437 88.6475 93.9245 89.4879 93.199 88.8651C90.9524 86.9366 87.7619 85.7322 84.2228 85.7322C80.7945 85.7322 77.6932 86.8625 75.4602 88.6863C74.6438 89.3532 73.7944 88.6742 74.2894 87.6573Z" fill="black" fill-opacity="0.6"/>
<path fill-rule="evenodd" clip-rule="evenodd" d="M127.451 87.6573C129.144 84.1807 132.955 81.7568 137.385 81.7568C141.799 81.7568 145.599 84.1636 147.3 87.6206C147.806 88.6475 147.087 89.4879 146.361 88.8651C144.114 86.9366 140.924 85.7322 137.385 85.7322C133.957 85.7322 130.855 86.8625 128.622 88.6863C127.806 89.3532 126.956 88.6742 127.451 87.6573Z" fill="black" fill-opacity="0.6"/>
<path fill-rule="evenodd" clip-rule="evenodd" d="M83.8102 65.4193C78.4875 65.6648 69.8825 69.5265 70.1041 74.8858C70.1115 75.0612 70.3695 75.1383 70.4956 75.0033C73.0207 72.295 90.9496 69.5582 97.2645 71.0085C97.8425 71.1414 98.2816 70.5722 97.9155 70.1609C94.7788 66.639 88.5787 65.1947 83.8102 65.4193Z" fill="black" fill-opacity="0.6"/>
<path fill-rule="evenodd" clip-rule="evenodd" d="M138.718 65.4193C144.041 65.6648 152.646 69.5265 152.424 74.8858C152.417 75.0612 152.159 75.1383 152.033 75.0033C149.508 72.295 131.579 69.5582 125.264 71.0085C124.686 71.1414 124.247 70.5722 124.613 70.1609C127.749 66.639 133.95 65.1947 138.718 65.4193Z" fill="black" fill-opacity="0.6"/>
<mask id="mask5_24_292" style="mask-type:alpha" maskUnits="userSpaceOnUse" x="-11" y="-16" width="243" height="257">
<path d="M231.795 -15.2532H-10.1846V241H231.795V-15.2532Z" fill="white"/>
</mask>
<g mask="url(#mask5_24_292)">
<mask id="mask6_24_292" style="mask-type:alpha" maskUnits="userSpaceOnUse" x="56" y="0" width="108" height="76">
<path d="M153.921 21.2816C151.391 18.7007 148.454 16.5102 145.598 14.3135C144.967 13.8292 144.327 13.3567 143.711 12.854C143.571 12.7398 142.135 11.7136 141.964 11.3359C141.551 10.4273 141.79 11.1348 141.847 10.0505C141.919 8.67951 144.719 4.80717 142.63 3.91915C141.711 3.52856 140.071 4.56796 139.189 4.91126C137.465 5.58311 135.719 6.15608 133.936 6.65014C134.79 4.95087 136.419 1.54925 133.358 2.45969C130.974 3.169 128.752 4.99263 126.355 5.85056C127.148 4.55292 130.319 0.531961 127.454 0.307192C126.562 0.237182 123.968 1.90698 123.008 2.26317C120.133 3.3302 117.196 4.01986 114.178 4.56305C103.914 6.41002 91.9112 5.88341 82.4149 10.5492C75.0938 14.1461 67.8647 19.7272 63.6354 26.8342C59.5592 33.6844 58.0345 41.1813 57.1813 49.031C56.5553 54.7917 56.5044 60.7465 56.7972 66.5282C56.8928 68.4224 57.1062 77.1543 59.8624 74.5099C61.2355 73.1923 61.2254 67.8719 61.5712 66.071C62.2595 62.4879 62.922 58.8888 64.0695 55.4203C66.0917 49.3079 68.4772 46.4578 73.5149 42.248C76.7478 39.5468 79.018 35.8958 82.1117 33.1706C83.5014 31.9467 82.441 32.0741 84.6753 32.2347C86.1763 32.3425 87.6841 32.3836 89.1881 32.423C92.6675 32.5132 96.1524 32.4902 99.6327 32.5025C106.642 32.5277 113.618 32.6265 120.62 32.2602C123.732 32.0975 126.852 32.0093 129.956 31.7219C131.689 31.5613 134.766 30.4519 136.193 31.2997C137.499 32.0754 138.855 34.608 139.793 35.6452C142.009 38.0965 144.65 39.9687 147.241 41.9787C152.644 46.1697 155.371 47.7729 157.012 54.3225C158.647 60.8479 158.189 66.9017 160.212 73.3233C160.568 74.4523 161.509 76.3985 162.67 74.6541C162.886 74.3301 162.83 72.5492 162.83 71.5245C162.83 67.3881 163.879 64.2845 163.866 60.1211C163.814 47.4622 163.404 30.9555 153.921 21.2816Z" fill="white"/>
</mask>
<g mask="url(#mask6_24_292)">
<path d="M153.921 21.2816C151.391 18.7007 148.454 16.5102 145.598 14.3135C144.967 13.8292 144.327 13.3567 143.711 12.854C143.571 12.7398 142.135 11.7136 141.964 11.3359C141.551 10.4273 141.79 11.1348 141.847 10.0505C141.919 8.67951 144.719 4.80717 142.63 3.91915C141.711 3.52856 140.071 4.56796 139.189 4.91126C137.465 5.58311 135.719 6.15608 133.936 6.65014C134.79 4.95087 136.419 1.54925 133.358 2.45969C130.974 3.169 128.752 4.99263 126.355 5.85056C127.148 4.55292 130.319 0.531961 127.454 0.307192C126.562 0.237182 123.968 1.90698 123.008 2.26317C120.133 3.3302 117.196 4.01986 114.178 4.56305C103.914 6.41002 91.9112 5.88341 82.4149 10.5492C75.0938 14.1461 67.8647 19.7272 63.6354 26.8342C59.5592 33.6844 58.0345 41.1813 57.1813 49.031C56.5553 54.7917 56.5044 60.7465 56.7972 66.5282C56.8928 68.4224 57.1062 77.1543 59.8624 74.5099C61.2355 73.1923 61.2254 67.8719 61.5712 66.071C62.2595 62.4879 62.922 58.8888 64.0695 55.4203C66.0917 49.3079 68.4772 46.4578 73.5149 42.248C76.7478 39.5468 79.018 35.8958 82.1117 33.1706C83.5014 31.9467 82.441 32.0741 84.6753 32.2347C86.1763 32.3425 87.6841 32.3836 89.1881 32.423C92.6675 32.5132 96.1524 32.4902 99.6327 32.5025C106.642 32.5277 113.618 32.6265 120.62 32.2602C123.732 32.0975 126.852 32.0093 129.956 31.7219C131.689 31.5613 134.766 30.4519 136.193 31.2997C137.499 32.0754 138.855 34.608 139.793 35.6452C142.009 38.0965 144.65 39.9687 147.241 41.9787C152.644 46.1697 155.371 47.7729 157.012 54.3225C158.647 60.8479 158.189 66.9017 160.212 73.3233C160.568 74.4523 161.509 76.3985 162.67 74.6541C162.886 74.3301 162.83 72.5492 162.83 71.5245C162.83 67.3881 163.879 64.2845 163.866 60.1211C163.814 47.4622 163.404 30.9555 153.921 21.2816Z" fill="#1F3140"/>
<path d="M233.228 -15.2532H-10.2861V241.413H233.228V-15.2532Z" fill="#4A312C"/>
</g>
</g>
</g>
</g>
<defs>
<clipPath id="clip0_24_292">
<rect width="221" height="241" fill="white"/>
</clipPath>
</defs>
</svg>
