<svg width="141" height="141" viewBox="0 0 141 141" fill="none" xmlns="http://www.w3.org/2000/svg">
<circle cx="70.2964" cy="70.2964" r="70.2964" fill="#202020"/>
<path d="M124.972 70.2124C124.972 62.9638 115.9 56.0944 101.992 51.8344C105.201 37.6495 103.775 26.3639 97.4892 22.7508C96.0404 21.9033 94.3464 21.5018 92.4964 21.5018V26.4755C93.5217 26.4755 94.3464 26.6762 95.0374 27.0553C98.0687 28.795 99.3837 35.4191 98.3584 43.939C98.1133 46.0355 97.7121 48.2436 97.2217 50.4962C92.853 49.4257 88.0832 48.6004 83.0682 48.0651C80.0591 43.939 76.9387 40.192 73.7959 36.9134C81.0621 30.1555 87.8826 26.4532 92.5187 26.4532V21.4795C86.3892 21.4795 78.3652 25.851 70.252 33.4341C62.1388 25.8956 54.1147 21.5687 47.9852 21.5687V26.5424C52.5991 26.5424 59.4418 30.2224 66.708 36.9358C63.5876 40.2143 60.4671 43.939 57.5027 48.0651C52.4653 48.6004 47.6955 49.4257 43.3268 50.5185C42.8142 48.2882 42.4353 46.1248 42.1678 44.0505C41.1202 35.5306 42.413 28.9065 45.422 27.1446C46.0907 26.7431 46.9599 26.5647 47.9852 26.5647V21.591C46.113 21.591 44.419 21.9925 42.9479 22.84C36.6847 26.4532 35.2805 37.7164 38.5124 51.8567C24.6486 56.139 15.6216 62.9861 15.6216 70.2124C15.6216 77.461 24.6932 84.3305 38.6016 88.5904C35.3919 102.775 36.8184 114.061 43.1039 117.674C44.5527 118.522 46.2467 118.923 48.119 118.923C54.2485 118.923 62.2725 114.552 70.3857 106.968C78.4989 114.507 86.523 118.834 92.6524 118.834C94.5247 118.834 96.2187 118.432 97.6898 117.585C103.953 113.972 105.357 102.708 102.125 88.5681C115.944 84.3082 124.972 77.4387 124.972 70.2124ZM95.9512 55.3361C95.1265 58.2132 94.1012 61.1795 92.9422 64.1459C92.0283 62.3616 91.0699 60.5774 90.0223 58.7931C88.997 57.0088 87.9049 55.2691 86.8127 53.5741C89.9778 54.0425 93.0313 54.6223 95.9512 55.3361ZM85.7428 79.0892C84.0043 82.1001 82.2212 84.955 80.3712 87.6091C77.0501 87.899 73.6845 88.0551 70.2966 88.0551C66.9309 88.0551 63.5653 87.899 60.2665 87.6314C58.4165 84.9773 56.6111 82.1447 54.8726 79.1561C53.1786 76.2343 51.6406 73.268 50.2364 70.2793C51.6184 67.2907 53.1786 64.302 54.8503 61.3803C56.5888 58.3693 58.3719 55.5145 60.2219 52.8604C63.543 52.5704 66.9086 52.4143 70.2966 52.4143C73.6622 52.4143 77.0278 52.5704 80.3266 52.8381C82.1766 55.4922 83.982 58.3247 85.7206 61.3134C87.4145 64.2351 88.9525 67.2015 90.3567 70.1901C88.9525 73.1788 87.4145 76.1674 85.7428 79.0892ZM92.9422 76.1897C94.1458 79.1784 95.1711 82.167 96.0181 85.0665C93.0982 85.7802 90.0223 86.3824 86.835 86.8508C87.9272 85.1334 89.0193 83.3714 90.0446 81.5649C91.0699 79.7806 92.0283 77.974 92.9422 76.1897ZM70.3411 99.9875C68.2683 97.8463 66.1954 95.4599 64.1448 92.8504C66.1508 92.9396 68.2014 93.0065 70.2743 93.0065C72.3694 93.0065 74.4423 92.9619 76.4706 92.8504C74.4646 95.4599 72.3917 97.8463 70.3411 99.9875ZM53.7581 86.8508C50.5931 86.3824 47.5395 85.8025 44.6196 85.0888C45.4443 82.2117 46.4696 79.2453 47.6286 76.2789C48.5425 78.0632 49.5009 79.8475 50.5485 81.6318C51.5961 83.416 52.6659 85.1557 53.7581 86.8508ZM70.2297 40.4374C72.3026 42.5785 74.3754 44.965 76.426 47.5745C74.42 47.4853 72.3694 47.4183 70.2966 47.4183C68.2014 47.4183 66.1285 47.463 64.1002 47.5745C66.1062 44.965 68.1791 42.5785 70.2297 40.4374ZM53.7358 53.5741C52.6437 55.2914 51.5515 57.0534 50.5262 58.86C49.5009 60.6443 48.5425 62.4285 47.6286 64.2128C46.425 61.2242 45.3997 58.2355 44.5527 55.3361C47.4726 54.6446 50.5485 54.0425 53.7358 53.5741ZM33.5642 81.4979C25.6739 78.1301 20.5697 73.7141 20.5697 70.2124C20.5697 66.7108 25.6739 62.2724 33.5642 58.9269C35.4811 58.1017 37.5763 57.3657 39.7383 56.6743C41.0088 61.0457 42.6805 65.5956 44.7533 70.257C42.7027 74.8961 41.0534 79.4237 39.8052 83.7729C37.5986 83.0815 35.5034 82.3232 33.5642 81.4979ZM45.5557 113.37C42.5244 111.63 41.2094 105.006 42.2347 96.4858C42.4799 94.3893 42.8811 92.1813 43.3714 89.9286C47.7401 90.9992 52.5099 91.8244 57.5249 92.3597C60.534 96.4858 63.6544 100.233 66.7972 103.511C59.531 110.269 52.7105 113.972 48.0744 113.972C47.0714 113.949 46.2244 113.749 45.5557 113.37ZM98.4253 96.3743C99.4729 104.894 98.1801 111.518 95.1711 113.28C94.5024 113.682 93.6332 113.86 92.6079 113.86C87.994 113.86 81.1513 110.18 73.8851 103.467C77.0056 100.188 80.126 96.4635 83.0905 92.3374C88.1278 91.8021 92.8976 90.9769 97.2663 89.884C97.7789 92.1367 98.1801 94.3001 98.4253 96.3743ZM107.007 81.4979C105.09 82.3232 102.995 83.0592 100.833 83.7506C99.562 79.3791 97.8904 74.8292 95.8175 70.1678C97.8681 65.5287 99.5175 61.0011 100.766 56.652C102.972 57.3434 105.067 58.1017 107.029 58.9269C114.919 62.2947 120.023 66.7108 120.023 70.2124C120.001 73.7141 114.897 78.1524 107.007 81.4979Z" fill="#61DAFB"/>
<path d="M70.274 80.4053C75.8996 80.4053 80.4601 75.8419 80.4601 70.2127C80.4601 64.5834 75.8996 60.02 70.274 60.02C64.6484 60.02 60.0879 64.5834 60.0879 70.2127C60.0879 75.8419 64.6484 80.4053 70.274 80.4053Z" fill="#61DAFB"/>
</svg>
